<svg width="30" height="30" viewBox="0 0 30 30" fill="none" xmlns="http://www.w3.org/2000/svg">
<g clip-path="url(#clip0_1126_6808)">
<path d="M27.3633 0.0585938H2.63672C1.18283 0.0585938 0 1.24143 0 2.69531V27.3047C0 28.7586 1.18283 29.9414 2.63672 29.9414H27.3633C28.8172 29.9414 30 28.7586 30 27.3047V2.69531C30 1.24143 28.8172 0.0585938 27.3633 0.0585938ZM2.63672 1.81641H27.3633C27.8479 1.81641 28.2422 2.21068 28.2422 2.69531V7.08984H1.75781V2.69531C1.75781 2.21068 2.15209 1.81641 2.63672 1.81641ZM27.3633 28.1836H2.63672C2.15209 28.1836 1.75781 27.7893 1.75781 27.3047V8.84766H28.2422V27.3047C28.2422 27.7893 27.8479 28.1836 27.3633 28.1836Z" fill="black"/>
<path d="M27.3633 0.0585938H2.63672C1.18283 0.0585938 0 1.24143 0 2.69531V27.3047C0 28.7586 1.18283 29.9414 2.63672 29.9414H27.3633C28.8172 29.9414 30 28.7586 30 27.3047V2.69531C30 1.24143 28.8172 0.0585938 27.3633 0.0585938ZM2.63672 1.81641H27.3633C27.8479 1.81641 28.2422 2.21068 28.2422 2.69531V7.08984H1.75781V2.69531C1.75781 2.21068 2.15209 1.81641 2.63672 1.81641ZM27.3633 28.1836H2.63672C2.15209 28.1836 1.75781 27.7893 1.75781 27.3047V8.84766H28.2422V27.3047C28.2422 27.7893 27.8479 28.1836 27.3633 28.1836Z" fill="url(#paint0_linear_1126_6808)"/>
<path d="M17.9832 11.5557C17.537 11.3645 17.0203 11.5711 16.8291 12.0173L11.5557 24.3219C11.3644 24.7681 11.5711 25.2848 12.0173 25.476C12.4636 25.6673 12.9802 25.4604 13.1713 25.0144L18.4448 12.7097C18.636 12.2635 18.4293 11.7468 17.9832 11.5557Z" fill="black"/>
<path d="M17.9832 11.5557C17.537 11.3645 17.0203 11.5711 16.8291 12.0173L11.5557 24.3219C11.3644 24.7681 11.5711 25.2848 12.0173 25.476C12.4636 25.6673 12.9802 25.4604 13.1713 25.0144L18.4448 12.7097C18.636 12.2635 18.4293 11.7468 17.9832 11.5557Z" fill="url(#paint1_linear_1126_6808)"/>
<path d="M10.4126 14.451C10.1094 14.0719 9.55618 14.0105 9.17731 14.3137L4.78278 17.8294C4.34339 18.1807 4.34309 18.8503 4.78278 19.202L9.17731 22.7176C9.55635 23.0209 10.1095 22.9594 10.4126 22.5804C10.7159 22.2013 10.6545 21.6482 10.2754 21.345L6.73876 18.5157L10.2754 15.6864C10.6545 15.3831 10.7159 14.8301 10.4126 14.451Z" fill="black"/>
<path d="M10.4126 14.451C10.1094 14.0719 9.55618 14.0105 9.17731 14.3137L4.78278 17.8294C4.34339 18.1807 4.34309 18.8503 4.78278 19.202L9.17731 22.7176C9.55635 23.0209 10.1095 22.9594 10.4126 22.5804C10.7159 22.2013 10.6545 21.6482 10.2754 21.345L6.73876 18.5157L10.2754 15.6864C10.6545 15.3831 10.7159 14.8301 10.4126 14.451Z" fill="url(#paint2_linear_1126_6808)"/>
<path d="M25.217 17.8294L20.8225 14.3138C20.4435 14.0105 19.8903 14.0719 19.5872 14.451C19.2839 14.83 19.3454 15.3832 19.7245 15.6863L23.2611 18.5157L19.7245 21.345C19.3454 21.6482 19.2839 22.2013 19.5872 22.5803C19.8908 22.9598 20.444 23.0205 20.8225 22.7176L25.217 19.2019C25.6564 18.8506 25.6567 18.1811 25.217 17.8294Z" fill="black"/>
<path d="M25.217 17.8294L20.8225 14.3138C20.4435 14.0105 19.8903 14.0719 19.5872 14.451C19.2839 14.83 19.3454 15.3832 19.7245 15.6863L23.2611 18.5157L19.7245 21.345C19.3454 21.6482 19.2839 22.2013 19.5872 22.5803C19.8908 22.9598 20.444 23.0205 20.8225 22.7176L25.217 19.2019C25.6564 18.8506 25.6567 18.1811 25.217 17.8294Z" fill="url(#paint3_linear_1126_6808)"/>
<path d="M4.45312 5.33203C4.93853 5.33203 5.33203 4.93853 5.33203 4.45312C5.33203 3.96772 4.93853 3.57422 4.45312 3.57422C3.96772 3.57422 3.57422 3.96772 3.57422 4.45312C3.57422 4.93853 3.96772 5.33203 4.45312 5.33203Z" fill="black"/>
<path d="M4.45312 5.33203C4.93853 5.33203 5.33203 4.93853 5.33203 4.45312C5.33203 3.96772 4.93853 3.57422 4.45312 3.57422C3.96772 3.57422 3.57422 3.96772 3.57422 4.45312C3.57422 4.93853 3.96772 5.33203 4.45312 5.33203Z" fill="url(#paint4_linear_1126_6808)"/>
<path d="M7.96875 5.33203C8.45416 5.33203 8.84766 4.93853 8.84766 4.45312C8.84766 3.96772 8.45416 3.57422 7.96875 3.57422C7.48334 3.57422 7.08984 3.96772 7.08984 4.45312C7.08984 4.93853 7.48334 5.33203 7.96875 5.33203Z" fill="black"/>
<path d="M7.96875 5.33203C8.45416 5.33203 8.84766 4.93853 8.84766 4.45312C8.84766 3.96772 8.45416 3.57422 7.96875 3.57422C7.48334 3.57422 7.08984 3.96772 7.08984 4.45312C7.08984 4.93853 7.48334 5.33203 7.96875 5.33203Z" fill="url(#paint5_linear_1126_6808)"/>
<path d="M11.4844 5.33203C11.9698 5.33203 12.3633 4.93853 12.3633 4.45312C12.3633 3.96772 11.9698 3.57422 11.4844 3.57422C10.999 3.57422 10.6055 3.96772 10.6055 4.45312C10.6055 4.93853 10.999 5.33203 11.4844 5.33203Z" fill="black"/>
<path d="M11.4844 5.33203C11.9698 5.33203 12.3633 4.93853 12.3633 4.45312C12.3633 3.96772 11.9698 3.57422 11.4844 3.57422C10.999 3.57422 10.6055 3.96772 10.6055 4.45312C10.6055 4.93853 10.999 5.33203 11.4844 5.33203Z" fill="url(#paint6_linear_1126_6808)"/>
<path d="M20.2734 5.33203H25.5469C26.0323 5.33203 26.4258 4.93852 26.4258 4.45312C26.4258 3.96773 26.0323 3.57422 25.5469 3.57422H20.2734C19.788 3.57422 19.3945 3.96773 19.3945 4.45312C19.3945 4.93852 19.788 5.33203 20.2734 5.33203Z" fill="black"/>
<path d="M20.2734 5.33203H25.5469C26.0323 5.33203 26.4258 4.93852 26.4258 4.45312C26.4258 3.96773 26.0323 3.57422 25.5469 3.57422H20.2734C19.788 3.57422 19.3945 3.96773 19.3945 4.45312C19.3945 4.93852 19.788 5.33203 20.2734 5.33203Z" fill="url(#paint7_linear_1126_6808)"/>
</g>
<defs>
<linearGradient id="paint0_linear_1126_6808" x1="1.7" y1="0.0585941" x2="27.4887" y2="28.6473" gradientUnits="userSpaceOnUse">
<stop offset="0.259336" stop-color="#FFDB6E"/>
<stop offset="1" stop-color="#FFBC5E"/>
</linearGradient>
<linearGradient id="paint1_linear_1126_6808" x1="11.8828" y1="11.4844" x2="22.2081" y2="17.1854" gradientUnits="userSpaceOnUse">
<stop offset="0.259336" stop-color="#FFDB6E"/>
<stop offset="1" stop-color="#FFBC5E"/>
</linearGradient>
<linearGradient id="paint2_linear_1126_6808" x1="4.80175" y1="14.1211" x2="12.181" y2="19.8248" gradientUnits="userSpaceOnUse">
<stop offset="0.259336" stop-color="#FFDB6E"/>
<stop offset="1" stop-color="#FFBC5E"/>
</linearGradient>
<linearGradient id="paint3_linear_1126_6808" x1="19.7432" y1="14.1211" x2="27.1223" y2="19.8248" gradientUnits="userSpaceOnUse">
<stop offset="0.259336" stop-color="#FFDB6E"/>
<stop offset="1" stop-color="#FFBC5E"/>
</linearGradient>
<linearGradient id="paint4_linear_1126_6808" x1="3.67383" y1="3.57422" x2="5.19141" y2="5.25" gradientUnits="userSpaceOnUse">
<stop offset="0.259336" stop-color="#FFDB6E"/>
<stop offset="1" stop-color="#FFBC5E"/>
</linearGradient>
<linearGradient id="paint5_linear_1126_6808" x1="7.18945" y1="3.57422" x2="8.70703" y2="5.25" gradientUnits="userSpaceOnUse">
<stop offset="0.259336" stop-color="#FFDB6E"/>
<stop offset="1" stop-color="#FFBC5E"/>
</linearGradient>
<linearGradient id="paint6_linear_1126_6808" x1="10.7051" y1="3.57422" x2="12.2227" y2="5.25" gradientUnits="userSpaceOnUse">
<stop offset="0.259336" stop-color="#FFDB6E"/>
<stop offset="1" stop-color="#FFBC5E"/>
</linearGradient>
<linearGradient id="paint7_linear_1126_6808" x1="19.793" y1="3.57422" x2="20.4498" y2="6.4756" gradientUnits="userSpaceOnUse">
<stop offset="0.259336" stop-color="#FFDB6E"/>
<stop offset="1" stop-color="#FFBC5E"/>
</linearGradient>
<clipPath id="clip0_1126_6808">
<rect width="30" height="30" fill="white"/>
</clipPath>
</defs>
</svg>
