<svg width="30" height="30" viewBox="0 0 30 30" fill="none" xmlns="http://www.w3.org/2000/svg">
<path d="M28.7364 11.8554L25.9037 9.49293C25.4598 9.12262 24.9306 8.89481 24.4136 8.85121C23.8127 8.80293 23.2731 9.00684 22.9314 9.41606L20.7269 12.0593L12.3152 22.1464L12.3208 22.1511C12.2144 22.2786 12.1487 22.4384 12.1525 22.6114L12.2636 28.0821C12.2678 28.2907 12.3644 28.4867 12.5275 28.617C12.6531 28.7178 12.8083 28.7712 12.9667 28.7712C13.0136 28.7712 13.0605 28.7665 13.1069 28.7571L18.3695 27.687C18.5289 27.6546 18.6639 27.5646 18.7642 27.4442L18.7694 27.4484L27.1412 17.4096L29.3458 14.7664C30.0081 13.9709 29.74 12.6926 28.7364 11.8554ZM13.652 27.2103L13.5887 24.1062L16.638 26.6028L13.652 27.2103ZM18.1347 26.0117L13.8489 22.5022L21.3564 13.5003L25.6103 17.0478L18.1347 26.0117ZM28.2653 13.865L26.5112 15.9678L22.2573 12.4203L24.0114 10.317C24.0536 10.2664 24.1642 10.242 24.2955 10.2528C24.5237 10.272 24.7816 10.3887 25.0023 10.5729L27.835 12.9354C28.2761 13.3029 28.3647 13.7464 28.2653 13.865Z" fill="black"/>
<path d="M28.7364 11.8554L25.9037 9.49293C25.4598 9.12262 24.9306 8.89481 24.4136 8.85121C23.8127 8.80293 23.2731 9.00684 22.9314 9.41606L20.7269 12.0593L12.3152 22.1464L12.3208 22.1511C12.2144 22.2786 12.1487 22.4384 12.1525 22.6114L12.2636 28.0821C12.2678 28.2907 12.3644 28.4867 12.5275 28.617C12.6531 28.7178 12.8083 28.7712 12.9667 28.7712C13.0136 28.7712 13.0605 28.7665 13.1069 28.7571L18.3695 27.687C18.5289 27.6546 18.6639 27.5646 18.7642 27.4442L18.7694 27.4484L27.1412 17.4096L29.3458 14.7664C30.0081 13.9709 29.74 12.6926 28.7364 11.8554ZM13.652 27.2103L13.5887 24.1062L16.638 26.6028L13.652 27.2103ZM18.1347 26.0117L13.8489 22.5022L21.3564 13.5003L25.6103 17.0478L18.1347 26.0117ZM28.2653 13.865L26.5112 15.9678L22.2573 12.4203L24.0114 10.317C24.0536 10.2664 24.1642 10.242 24.2955 10.2528C24.5237 10.272 24.7816 10.3887 25.0023 10.5729L27.835 12.9354C28.2761 13.3029 28.3647 13.7464 28.2653 13.865Z" fill="url(#paint0_linear_1126_6741)"/>
<path d="M9.83055 23.16C9.79492 23.137 9.75789 23.1192 9.72039 23.1032C9.71617 23.1014 9.71242 23.0986 9.7082 23.0971C9.62664 23.0643 9.54133 23.0493 9.45648 23.0484C9.4518 23.0484 9.44758 23.0475 9.44336 23.0475C9.35711 23.0479 9.2718 23.0653 9.19164 23.0962C9.18742 23.0976 9.18367 23.0986 9.17945 23.1C9.09555 23.1346 9.01773 23.1853 8.95117 23.2514C8.9507 23.2518 8.95023 23.2518 8.94977 23.2523L8.94836 23.2537C8.94742 23.2547 8.94602 23.2561 8.94508 23.257L7.16523 25.0364C6.77242 25.4268 6.13633 25.4268 5.7468 25.0382L5.25461 24.5461C4.86555 24.157 4.86648 23.5204 5.25461 23.13L7.0368 21.3478C7.03727 21.3473 7.03773 21.3468 7.03867 21.3459L7.04102 21.3436C7.04148 21.3431 7.04195 21.3421 7.04242 21.3412C7.10805 21.2751 7.15867 21.1978 7.19336 21.1143C7.19523 21.1101 7.1957 21.1054 7.19758 21.1012C7.22852 21.0211 7.24586 20.9362 7.24633 20.8504C7.24633 20.8462 7.24539 20.842 7.24539 20.8373C7.24445 20.752 7.22898 20.6667 7.19617 20.5851C7.19477 20.5818 7.19242 20.579 7.19102 20.5757C7.17508 20.5373 7.1568 20.4998 7.13336 20.4637C6.54789 19.5628 6.13727 18.5728 5.91273 17.5214C5.91039 17.5106 5.9057 17.5012 5.90289 17.4904C5.89398 17.4562 5.88414 17.4215 5.87055 17.3896C5.86352 17.3732 5.8532 17.3587 5.84523 17.3428C5.83211 17.3179 5.81992 17.2931 5.80445 17.2701C5.79414 17.2551 5.78148 17.2425 5.77023 17.2289C5.75289 17.2073 5.73602 17.1853 5.71633 17.1661C5.70602 17.1557 5.69383 17.1478 5.68305 17.1384C5.65961 17.1182 5.63617 17.0976 5.61039 17.0807C5.60102 17.0746 5.5907 17.0704 5.58086 17.0648C5.5518 17.0475 5.52227 17.0306 5.49039 17.0179C5.47867 17.0132 5.46648 17.0109 5.45477 17.0067C5.42383 16.9959 5.39336 16.9851 5.36102 16.979C5.33852 16.9748 5.31555 16.9743 5.29258 16.972C5.27055 16.9696 5.24898 16.9654 5.22602 16.9654H2.7018C2.14773 16.9654 1.69727 16.515 1.69727 15.9614V15.2723C1.69727 14.7187 2.14773 14.2682 2.7018 14.2682H5.22461H5.22695C5.22836 14.2682 5.22977 14.2673 5.23117 14.2673C5.3043 14.2668 5.37367 14.2523 5.43977 14.2312C5.45102 14.2275 5.46227 14.2251 5.47352 14.2209C5.53773 14.1965 5.5968 14.1632 5.6507 14.1225C5.66102 14.115 5.66992 14.107 5.67977 14.0986C5.73227 14.0536 5.77961 14.0029 5.81711 13.9448C5.8218 13.9373 5.82508 13.9293 5.8293 13.9218C5.8668 13.8586 5.89633 13.7896 5.91273 13.7156C5.9132 13.7142 5.91367 13.7132 5.91414 13.7118C6.13867 12.6609 6.5493 11.6709 7.13477 10.769C7.1582 10.7329 7.17648 10.6954 7.19242 10.657C7.19383 10.6537 7.1957 10.6509 7.19711 10.6476C7.22992 10.5656 7.24539 10.4803 7.24633 10.395C7.24633 10.3907 7.24727 10.3865 7.24727 10.3823C7.2468 10.2961 7.22945 10.2112 7.19852 10.1311C7.19711 10.1268 7.19617 10.1226 7.1943 10.1184C7.15961 10.0345 7.10898 9.95668 7.04289 9.89012C7.04242 9.88965 7.04242 9.88918 7.04195 9.88871L7.04055 9.88731C7.03914 9.8859 7.03773 9.88449 7.03633 9.88309L5.25742 8.10418C4.86742 7.71137 4.86648 7.0748 5.25555 6.68574L5.74773 6.19355C6.13727 5.80449 6.77336 5.80543 7.1643 6.19355L8.9507 7.97996C8.95352 7.98277 8.95773 7.98371 8.96055 7.98652C9.02055 8.04465 9.08898 8.08824 9.16305 8.12106C9.17992 8.12856 9.19633 8.13418 9.2132 8.14027C9.28867 8.16699 9.36648 8.18527 9.44664 8.18574H9.44805C9.52727 8.18574 9.60695 8.16746 9.68383 8.1398C9.7068 8.13184 9.72742 8.12012 9.74945 8.10981C9.77664 8.09668 9.80523 8.08918 9.83102 8.07231C10.732 7.48684 11.722 7.07621 12.7729 6.85168C12.7813 6.8498 12.7888 6.84606 12.7973 6.84371C12.8343 6.83434 12.8704 6.82402 12.9046 6.80949C12.9224 6.80199 12.9379 6.79121 12.9543 6.7823C12.9777 6.76965 13.0016 6.7584 13.0237 6.7434C13.0424 6.73027 13.0588 6.71481 13.0762 6.69981C13.093 6.68527 13.1113 6.67215 13.1268 6.65621C13.1427 6.64027 13.1554 6.62199 13.1695 6.60418C13.184 6.58637 13.1995 6.56996 13.2116 6.55074C13.2238 6.53246 13.2323 6.51277 13.2426 6.49309C13.2534 6.47246 13.266 6.45277 13.2749 6.43121C13.2843 6.40777 13.2904 6.3834 13.2974 6.35902C13.303 6.33981 13.3105 6.32105 13.3148 6.3009C13.3213 6.26762 13.3232 6.23293 13.3251 6.19871C13.3255 6.18699 13.3288 6.17574 13.3288 6.16356V6.1598C13.3288 6.15887 13.3288 6.1584 13.3288 6.15746V3.6398C13.3288 3.08621 13.7793 2.63574 14.3334 2.63574H15.022C15.576 2.63574 16.0265 3.08621 16.0265 3.6398V6.15887V6.15934V6.16402C16.0265 6.17949 16.0302 6.19355 16.0312 6.20902C16.033 6.23996 16.0345 6.2709 16.0405 6.3009C16.0452 6.32387 16.0532 6.34496 16.0602 6.36699C16.0668 6.38856 16.0715 6.41059 16.0799 6.43121C16.0893 6.45465 16.1024 6.47574 16.1146 6.49777C16.1245 6.51559 16.1324 6.53434 16.1437 6.55121C16.1568 6.5709 16.1723 6.58824 16.1873 6.60606C16.2009 6.62293 16.2135 6.64074 16.229 6.65668C16.2445 6.67262 16.2623 6.68574 16.2796 6.69981C16.2974 6.71481 16.3138 6.73074 16.333 6.74387C16.3537 6.75793 16.3766 6.76871 16.3987 6.7809C16.4165 6.79074 16.4334 6.80199 16.4521 6.80996C16.4835 6.82355 16.5173 6.83293 16.551 6.84184C16.5623 6.84465 16.5721 6.8498 16.5834 6.85215C17.6338 7.07668 18.6243 7.48731 19.5262 8.07277C19.5515 8.08918 19.5801 8.09668 19.6063 8.10981C19.6288 8.12059 19.6499 8.1323 19.6729 8.14027C19.7498 8.16793 19.8285 8.18621 19.9082 8.18621C19.9888 8.18621 20.0676 8.16746 20.143 8.14074C20.1599 8.13465 20.1763 8.12902 20.1932 8.12152C20.2673 8.08871 20.3357 8.04512 20.3957 7.98699C20.3985 7.98418 20.4027 7.98324 20.406 7.98043L22.1901 6.1959C22.5829 5.80684 23.2195 5.80496 23.6085 6.19402L24.1007 6.68621C24.3688 6.95434 24.4471 7.33871 24.3459 7.68043C24.4002 7.68184 24.4537 7.67996 24.5085 7.68418C24.9154 7.7184 25.3209 7.8323 25.708 8.00621C25.918 7.20418 25.7202 6.31684 25.0949 5.69199L24.6027 5.19981C23.6671 4.26418 22.1404 4.26324 21.1973 5.19981L19.7952 6.6023C19.0504 6.17621 18.2605 5.84809 17.4332 5.62262V3.6398C17.4332 2.3109 16.3518 1.22949 15.0224 1.22949H14.3338C13.0049 1.22949 11.923 2.3109 11.923 3.6398V5.62215C11.0957 5.84809 10.3054 6.17574 9.56102 6.60184L8.15664 5.19746C7.21586 4.26277 5.6882 4.26371 4.75352 5.19934L4.26133 5.69152C3.3257 6.62668 3.32523 8.1534 4.26133 9.09699L5.66336 10.499C5.23727 11.2439 4.90961 12.0337 4.68367 12.8611H2.7018C1.37289 12.8611 0.291016 13.9425 0.291016 15.2714V15.9604C0.291016 17.2893 1.37242 18.3707 2.7018 18.3707H4.68367C4.90961 19.1986 5.23727 19.9884 5.66336 20.7328L4.25945 22.1371C3.32477 23.0779 3.3257 24.6046 4.26133 25.5403L4.75352 26.0325C5.22133 26.5003 5.83727 26.7342 6.45367 26.7342C7.07008 26.7342 7.68742 26.5007 8.15851 26.0325L9.56102 24.6304C10.034 24.9014 10.5276 25.1273 11.0352 25.3181L11.0043 23.7923C10.6002 23.61 10.2065 23.4037 9.83055 23.16Z" fill="black"/>
<path d="M9.83055 23.16C9.79492 23.137 9.75789 23.1192 9.72039 23.1032C9.71617 23.1014 9.71242 23.0986 9.7082 23.0971C9.62664 23.0643 9.54133 23.0493 9.45648 23.0484C9.4518 23.0484 9.44758 23.0475 9.44336 23.0475C9.35711 23.0479 9.2718 23.0653 9.19164 23.0962C9.18742 23.0976 9.18367 23.0986 9.17945 23.1C9.09555 23.1346 9.01773 23.1853 8.95117 23.2514C8.9507 23.2518 8.95023 23.2518 8.94977 23.2523L8.94836 23.2537C8.94742 23.2547 8.94602 23.2561 8.94508 23.257L7.16523 25.0364C6.77242 25.4268 6.13633 25.4268 5.7468 25.0382L5.25461 24.5461C4.86555 24.157 4.86648 23.5204 5.25461 23.13L7.0368 21.3478C7.03727 21.3473 7.03773 21.3468 7.03867 21.3459L7.04102 21.3436C7.04148 21.3431 7.04195 21.3421 7.04242 21.3412C7.10805 21.2751 7.15867 21.1978 7.19336 21.1143C7.19523 21.1101 7.1957 21.1054 7.19758 21.1012C7.22852 21.0211 7.24586 20.9362 7.24633 20.8504C7.24633 20.8462 7.24539 20.842 7.24539 20.8373C7.24445 20.752 7.22898 20.6667 7.19617 20.5851C7.19477 20.5818 7.19242 20.579 7.19102 20.5757C7.17508 20.5373 7.1568 20.4998 7.13336 20.4637C6.54789 19.5628 6.13727 18.5728 5.91273 17.5214C5.91039 17.5106 5.9057 17.5012 5.90289 17.4904C5.89398 17.4562 5.88414 17.4215 5.87055 17.3896C5.86352 17.3732 5.8532 17.3587 5.84523 17.3428C5.83211 17.3179 5.81992 17.2931 5.80445 17.2701C5.79414 17.2551 5.78148 17.2425 5.77023 17.2289C5.75289 17.2073 5.73602 17.1853 5.71633 17.1661C5.70602 17.1557 5.69383 17.1478 5.68305 17.1384C5.65961 17.1182 5.63617 17.0976 5.61039 17.0807C5.60102 17.0746 5.5907 17.0704 5.58086 17.0648C5.5518 17.0475 5.52227 17.0306 5.49039 17.0179C5.47867 17.0132 5.46648 17.0109 5.45477 17.0067C5.42383 16.9959 5.39336 16.9851 5.36102 16.979C5.33852 16.9748 5.31555 16.9743 5.29258 16.972C5.27055 16.9696 5.24898 16.9654 5.22602 16.9654H2.7018C2.14773 16.9654 1.69727 16.515 1.69727 15.9614V15.2723C1.69727 14.7187 2.14773 14.2682 2.7018 14.2682H5.22461H5.22695C5.22836 14.2682 5.22977 14.2673 5.23117 14.2673C5.3043 14.2668 5.37367 14.2523 5.43977 14.2312C5.45102 14.2275 5.46227 14.2251 5.47352 14.2209C5.53773 14.1965 5.5968 14.1632 5.6507 14.1225C5.66102 14.115 5.66992 14.107 5.67977 14.0986C5.73227 14.0536 5.77961 14.0029 5.81711 13.9448C5.8218 13.9373 5.82508 13.9293 5.8293 13.9218C5.8668 13.8586 5.89633 13.7896 5.91273 13.7156C5.9132 13.7142 5.91367 13.7132 5.91414 13.7118C6.13867 12.6609 6.5493 11.6709 7.13477 10.769C7.1582 10.7329 7.17648 10.6954 7.19242 10.657C7.19383 10.6537 7.1957 10.6509 7.19711 10.6476C7.22992 10.5656 7.24539 10.4803 7.24633 10.395C7.24633 10.3907 7.24727 10.3865 7.24727 10.3823C7.2468 10.2961 7.22945 10.2112 7.19852 10.1311C7.19711 10.1268 7.19617 10.1226 7.1943 10.1184C7.15961 10.0345 7.10898 9.95668 7.04289 9.89012C7.04242 9.88965 7.04242 9.88918 7.04195 9.88871L7.04055 9.88731C7.03914 9.8859 7.03773 9.88449 7.03633 9.88309L5.25742 8.10418C4.86742 7.71137 4.86648 7.0748 5.25555 6.68574L5.74773 6.19355C6.13727 5.80449 6.77336 5.80543 7.1643 6.19355L8.9507 7.97996C8.95352 7.98277 8.95773 7.98371 8.96055 7.98652C9.02055 8.04465 9.08898 8.08824 9.16305 8.12106C9.17992 8.12856 9.19633 8.13418 9.2132 8.14027C9.28867 8.16699 9.36648 8.18527 9.44664 8.18574H9.44805C9.52727 8.18574 9.60695 8.16746 9.68383 8.1398C9.7068 8.13184 9.72742 8.12012 9.74945 8.10981C9.77664 8.09668 9.80523 8.08918 9.83102 8.07231C10.732 7.48684 11.722 7.07621 12.7729 6.85168C12.7813 6.8498 12.7888 6.84606 12.7973 6.84371C12.8343 6.83434 12.8704 6.82402 12.9046 6.80949C12.9224 6.80199 12.9379 6.79121 12.9543 6.7823C12.9777 6.76965 13.0016 6.7584 13.0237 6.7434C13.0424 6.73027 13.0588 6.71481 13.0762 6.69981C13.093 6.68527 13.1113 6.67215 13.1268 6.65621C13.1427 6.64027 13.1554 6.62199 13.1695 6.60418C13.184 6.58637 13.1995 6.56996 13.2116 6.55074C13.2238 6.53246 13.2323 6.51277 13.2426 6.49309C13.2534 6.47246 13.266 6.45277 13.2749 6.43121C13.2843 6.40777 13.2904 6.3834 13.2974 6.35902C13.303 6.33981 13.3105 6.32105 13.3148 6.3009C13.3213 6.26762 13.3232 6.23293 13.3251 6.19871C13.3255 6.18699 13.3288 6.17574 13.3288 6.16356V6.1598C13.3288 6.15887 13.3288 6.1584 13.3288 6.15746V3.6398C13.3288 3.08621 13.7793 2.63574 14.3334 2.63574H15.022C15.576 2.63574 16.0265 3.08621 16.0265 3.6398V6.15887V6.15934V6.16402C16.0265 6.17949 16.0302 6.19355 16.0312 6.20902C16.033 6.23996 16.0345 6.2709 16.0405 6.3009C16.0452 6.32387 16.0532 6.34496 16.0602 6.36699C16.0668 6.38856 16.0715 6.41059 16.0799 6.43121C16.0893 6.45465 16.1024 6.47574 16.1146 6.49777C16.1245 6.51559 16.1324 6.53434 16.1437 6.55121C16.1568 6.5709 16.1723 6.58824 16.1873 6.60606C16.2009 6.62293 16.2135 6.64074 16.229 6.65668C16.2445 6.67262 16.2623 6.68574 16.2796 6.69981C16.2974 6.71481 16.3138 6.73074 16.333 6.74387C16.3537 6.75793 16.3766 6.76871 16.3987 6.7809C16.4165 6.79074 16.4334 6.80199 16.4521 6.80996C16.4835 6.82355 16.5173 6.83293 16.551 6.84184C16.5623 6.84465 16.5721 6.8498 16.5834 6.85215C17.6338 7.07668 18.6243 7.48731 19.5262 8.07277C19.5515 8.08918 19.5801 8.09668 19.6063 8.10981C19.6288 8.12059 19.6499 8.1323 19.6729 8.14027C19.7498 8.16793 19.8285 8.18621 19.9082 8.18621C19.9888 8.18621 20.0676 8.16746 20.143 8.14074C20.1599 8.13465 20.1763 8.12902 20.1932 8.12152C20.2673 8.08871 20.3357 8.04512 20.3957 7.98699C20.3985 7.98418 20.4027 7.98324 20.406 7.98043L22.1901 6.1959C22.5829 5.80684 23.2195 5.80496 23.6085 6.19402L24.1007 6.68621C24.3688 6.95434 24.4471 7.33871 24.3459 7.68043C24.4002 7.68184 24.4537 7.67996 24.5085 7.68418C24.9154 7.7184 25.3209 7.8323 25.708 8.00621C25.918 7.20418 25.7202 6.31684 25.0949 5.69199L24.6027 5.19981C23.6671 4.26418 22.1404 4.26324 21.1973 5.19981L19.7952 6.6023C19.0504 6.17621 18.2605 5.84809 17.4332 5.62262V3.6398C17.4332 2.3109 16.3518 1.22949 15.0224 1.22949H14.3338C13.0049 1.22949 11.923 2.3109 11.923 3.6398V5.62215C11.0957 5.84809 10.3054 6.17574 9.56102 6.60184L8.15664 5.19746C7.21586 4.26277 5.6882 4.26371 4.75352 5.19934L4.26133 5.69152C3.3257 6.62668 3.32523 8.1534 4.26133 9.09699L5.66336 10.499C5.23727 11.2439 4.90961 12.0337 4.68367 12.8611H2.7018C1.37289 12.8611 0.291016 13.9425 0.291016 15.2714V15.9604C0.291016 17.2893 1.37242 18.3707 2.7018 18.3707H4.68367C4.90961 19.1986 5.23727 19.9884 5.66336 20.7328L4.25945 22.1371C3.32477 23.0779 3.3257 24.6046 4.26133 25.5403L4.75352 26.0325C5.22133 26.5003 5.83727 26.7342 6.45367 26.7342C7.07008 26.7342 7.68742 26.5007 8.15851 26.0325L9.56102 24.6304C10.034 24.9014 10.5276 25.1273 11.0352 25.3181L11.0043 23.7923C10.6002 23.61 10.2065 23.4037 9.83055 23.16Z" fill="url(#paint1_linear_1126_6741)"/>
<path d="M9.55859 15.6158C9.55859 12.793 11.855 10.4966 14.6778 10.4966C16.3569 10.4966 17.8456 11.3131 18.7798 12.5656L19.7033 11.4585C18.5052 10.0128 16.6977 9.09033 14.6778 9.09033C11.0797 9.09033 8.15234 12.0177 8.15234 15.6158C8.15234 18.0566 9.50141 20.1856 11.4912 21.305L12.4128 20.2002C10.7244 19.3621 9.55859 17.6249 9.55859 15.6158Z" fill="black"/>
<path d="M9.55859 15.6158C9.55859 12.793 11.855 10.4966 14.6778 10.4966C16.3569 10.4966 17.8456 11.3131 18.7798 12.5656L19.7033 11.4585C18.5052 10.0128 16.6977 9.09033 14.6778 9.09033C11.0797 9.09033 8.15234 12.0177 8.15234 15.6158C8.15234 18.0566 9.50141 20.1856 11.4912 21.305L12.4128 20.2002C10.7244 19.3621 9.55859 17.6249 9.55859 15.6158Z" fill="url(#paint2_linear_1126_6741)"/>
<defs>
<linearGradient id="paint0_linear_1126_6741" x1="13.1472" y1="8.84424" x2="30.4289" y2="25.6573" gradientUnits="userSpaceOnUse">
<stop offset="0.259336" stop-color="#FFDB6E"/>
<stop offset="1" stop-color="#FFBC5E"/>
</linearGradient>
<linearGradient id="paint1_linear_1126_6741" x1="1.73589" y1="1.22949" x2="23.7555" y2="25.538" gradientUnits="userSpaceOnUse">
<stop offset="0.259336" stop-color="#FFDB6E"/>
<stop offset="1" stop-color="#FFBC5E"/>
</linearGradient>
<linearGradient id="paint2_linear_1126_6741" x1="8.8069" y1="9.09033" x2="19.3942" y2="20.146" gradientUnits="userSpaceOnUse">
<stop offset="0.259336" stop-color="#FFDB6E"/>
<stop offset="1" stop-color="#FFBC5E"/>
</linearGradient>
</defs>
</svg>
