<svg width="30" height="30" viewBox="0 0 30 30" fill="none" xmlns="http://www.w3.org/2000/svg">
<g clip-path="url(#clip0_1126_6746)">
<path d="M26.25 29.5H3.75C2 29.5 0.625 28.125 0.625 26.375V3.75C0.625 2 2 0.625 3.75 0.625H26.25C28 0.625 29.375 2 29.375 3.75V26.25C29.5 28 28 29.5 26.25 29.5ZM3.75 1.75C2.625 1.75 1.75 2.625 1.75 3.75V26.25C1.75 27.375 2.625 28.125 3.625 28.125H26.25C27.375 28.125 28.125 27.25 28.125 26.25V3.75C28.125 2.625 27.25 1.875 26.25 1.875H3.75V1.75Z" fill="black"/>
<path d="M26.25 29.5H3.75C2 29.5 0.625 28.125 0.625 26.375V3.75C0.625 2 2 0.625 3.75 0.625H26.25C28 0.625 29.375 2 29.375 3.75V26.25C29.5 28 28 29.5 26.25 29.5ZM3.75 1.75C2.625 1.75 1.75 2.625 1.75 3.75V26.25C1.75 27.375 2.625 28.125 3.625 28.125H26.25C27.375 28.125 28.125 27.25 28.125 26.25V3.75C28.125 2.625 27.25 1.875 26.25 1.875H3.75V1.75Z" fill="url(#paint0_linear_1126_6746)"/>
<path d="M5.25 5.12492C5 5.12492 4.875 4.99992 4.75 4.87492C4.625 4.74992 4.625 4.62492 4.625 4.49992C4.625 4.37492 4.625 4.12492 4.75 4.12492C5 3.74992 5.375 3.74992 5.625 3.99992C5.75 4.12492 5.875 4.24992 5.875 4.49992C5.875 4.62492 5.75 4.74992 5.75 4.87492C5.5 4.99992 5.375 5.12492 5.25 5.12492Z" fill="black"/>
<path d="M5.25 5.12492C5 5.12492 4.875 4.99992 4.75 4.87492C4.625 4.74992 4.625 4.62492 4.625 4.49992C4.625 4.37492 4.625 4.12492 4.75 4.12492C5 3.74992 5.375 3.74992 5.625 3.99992C5.75 4.12492 5.875 4.24992 5.875 4.49992C5.875 4.62492 5.75 4.74992 5.75 4.87492C5.5 4.99992 5.375 5.12492 5.25 5.12492Z" fill="url(#paint1_linear_1126_6746)"/>
<path d="M8 5.125C7.75 5.125 7.625 5 7.5 4.875C7.375 4.75 7.375 4.625 7.375 4.5C7.375 4.375 7.375 4.125 7.5 4C7.75 3.75 8.125 3.75 8.375 4C8.5 4.125 8.625 4.25 8.625 4.5C8.625 4.625 8.5 4.75 8.5 4.875C8.25 5 8.125 5.125 8 5.125Z" fill="black"/>
<path d="M8 5.125C7.75 5.125 7.625 5 7.5 4.875C7.375 4.75 7.375 4.625 7.375 4.5C7.375 4.375 7.375 4.125 7.5 4C7.75 3.75 8.125 3.75 8.375 4C8.5 4.125 8.625 4.25 8.625 4.5C8.625 4.625 8.5 4.75 8.5 4.875C8.25 5 8.125 5.125 8 5.125Z" fill="url(#paint2_linear_1126_6746)"/>
<path d="M10.75 5.125C10.625 5.125 10.375 5 10.25 4.875C10.125 4.75 10.125 4.625 10.125 4.5C10.125 4.375 10.125 4.125 10.25 4C10.5 3.75 11 3.75 11.25 4C11.25 4.125 11.375 4.375 11.375 4.5C11.375 4.625 11.25 4.75 11.25 4.875C11 5 10.875 5.125 10.75 5.125Z" fill="black"/>
<path d="M10.75 5.125C10.625 5.125 10.375 5 10.25 4.875C10.125 4.75 10.125 4.625 10.125 4.5C10.125 4.375 10.125 4.125 10.25 4C10.5 3.75 11 3.75 11.25 4C11.25 4.125 11.375 4.375 11.375 4.5C11.375 4.625 11.25 4.75 11.25 4.875C11 5 10.875 5.125 10.75 5.125Z" fill="url(#paint3_linear_1126_6746)"/>
<path d="M25.875 26.5H4.125C3.75 26.5 3.5 26.25 3.5 25.875V7.75C3.5 7.375 3.75 7.125 4.125 7.125H25.875C26.25 7.125 26.5 7.375 26.5 7.75V25.875C26.5 26.25 26.25 26.5 25.875 26.5ZM4.75 25.25H25.25V8.375H4.75V25.25Z" fill="black"/>
<path d="M25.875 26.5H4.125C3.75 26.5 3.5 26.25 3.5 25.875V7.75C3.5 7.375 3.75 7.125 4.125 7.125H25.875C26.25 7.125 26.5 7.375 26.5 7.75V25.875C26.5 26.25 26.25 26.5 25.875 26.5ZM4.75 25.25H25.25V8.375H4.75V25.25Z" fill="url(#paint4_linear_1126_6746)"/>
<path d="M9.5 14.5H6.75C6.5 14.5 6.25 14.375 6.125 14.125C6.125 14 6.125 13.75 6.25 13.5L7.625 11.875C7.75 11.75 7.875 11.625 8.125 11.625C8.25 11.625 8.5 11.75 8.625 11.875L10 13.5C10.125 13.625 10.25 14 10.125 14.125C10 14.375 9.75 14.5 9.5 14.5Z" fill="black"/>
<path d="M9.5 14.5H6.75C6.5 14.5 6.25 14.375 6.125 14.125C6.125 14 6.125 13.75 6.25 13.5L7.625 11.875C7.75 11.75 7.875 11.625 8.125 11.625C8.25 11.625 8.5 11.75 8.625 11.875L10 13.5C10.125 13.625 10.25 14 10.125 14.125C10 14.375 9.75 14.5 9.5 14.5Z" fill="url(#paint5_linear_1126_6746)"/>
<path d="M8.125 12.625C7.375 12.625 6.625 12 6.625 11.125C6.625 10.375 7.25 9.75 8.125 9.75C9 9.75 9.625 10.375 9.625 11.125C9.625 11.875 8.875 12.625 8.125 12.625ZM8.125 11C8 11 7.875 11.125 7.875 11.125C7.875 11.375 8.25 11.375 8.25 11.125C8.375 11 8.25 11 8.125 11Z" fill="black"/>
<path d="M8.125 12.625C7.375 12.625 6.625 12 6.625 11.125C6.625 10.375 7.25 9.75 8.125 9.75C9 9.75 9.625 10.375 9.625 11.125C9.625 11.875 8.875 12.625 8.125 12.625ZM8.125 11C8 11 7.875 11.125 7.875 11.125C7.875 11.375 8.25 11.375 8.25 11.125C8.375 11 8.25 11 8.125 11Z" fill="url(#paint6_linear_1126_6746)"/>
<path d="M23.249 23.875H12.749C12.374 23.875 12.124 23.625 12.124 23.25V12.125L10.749 10.75C10.624 10.625 10.499 10.375 10.624 10.125C10.749 9.875 10.999 9.75 11.249 9.75H23.249C23.624 9.75 23.874 10 23.874 10.375V23.25C23.874 23.5 23.624 23.875 23.249 23.875ZM13.374 22.625H22.624V11H12.749L13.249 11.5C13.374 11.625 13.499 11.75 13.499 12V22.625H13.374Z" fill="black"/>
<path d="M23.249 23.875H12.749C12.374 23.875 12.124 23.625 12.124 23.25V12.125L10.749 10.75C10.624 10.625 10.499 10.375 10.624 10.125C10.749 9.875 10.999 9.75 11.249 9.75H23.249C23.624 9.75 23.874 10 23.874 10.375V23.25C23.874 23.5 23.624 23.875 23.249 23.875ZM13.374 22.625H22.624V11H12.749L13.249 11.5C13.374 11.625 13.499 11.75 13.499 12V22.625H13.374Z" fill="url(#paint7_linear_1126_6746)"/>
<path d="M6.75 15.875H9.5V17.125H6.75V15.875Z" fill="black"/>
<path d="M6.75 15.875H9.5V17.125H6.75V15.875Z" fill="url(#paint8_linear_1126_6746)"/>
<path d="M6.125 18.125H10.125V19.375H6.125V18.125Z" fill="black"/>
<path d="M6.125 18.125H10.125V19.375H6.125V18.125Z" fill="url(#paint9_linear_1126_6746)"/>
<path d="M6.125 20.375H10.125V21.625H6.125V20.375Z" fill="black"/>
<path d="M6.125 20.375H10.125V21.625H6.125V20.375Z" fill="url(#paint10_linear_1126_6746)"/>
<path d="M8.25 10.25C7.5 10.25 7.5 11.5 8.25 11.5C9 11.5 9 10.25 8.25 10.25Z" fill="black"/>
<path d="M8.25 10.25C7.5 10.25 7.5 11.5 8.25 11.5C9 11.5 9 10.25 8.25 10.25Z" fill="url(#paint11_linear_1126_6746)"/>
<path d="M8.125 12.625C7.375 12.625 7.375 13.875 8.125 13.875C8.875 13.875 8.875 12.625 8.125 12.625Z" fill="black"/>
<path d="M8.125 12.625C7.375 12.625 7.375 13.875 8.125 13.875C8.875 13.875 8.875 12.625 8.125 12.625Z" fill="url(#paint12_linear_1126_6746)"/>
</g>
<defs>
<linearGradient id="paint0_linear_1126_6746" x1="2.25458" y1="0.625" x2="27.1932" y2="28.0511" gradientUnits="userSpaceOnUse">
<stop offset="0.259336" stop-color="#FFDB6E"/>
<stop offset="1" stop-color="#FFBC5E"/>
</linearGradient>
<linearGradient id="paint1_linear_1126_6746" x1="4.69583" y1="3.82568" x2="5.82096" y2="5.02102" gradientUnits="userSpaceOnUse">
<stop offset="0.259336" stop-color="#FFDB6E"/>
<stop offset="1" stop-color="#FFBC5E"/>
</linearGradient>
<linearGradient id="paint2_linear_1126_6746" x1="7.44583" y1="3.8125" x2="8.58309" y2="5.00851" gradientUnits="userSpaceOnUse">
<stop offset="0.259336" stop-color="#FFDB6E"/>
<stop offset="1" stop-color="#FFBC5E"/>
</linearGradient>
<linearGradient id="paint3_linear_1126_6746" x1="10.1958" y1="3.8125" x2="11.3331" y2="5.00851" gradientUnits="userSpaceOnUse">
<stop offset="0.259336" stop-color="#FFDB6E"/>
<stop offset="1" stop-color="#FFBC5E"/>
</linearGradient>
<linearGradient id="paint4_linear_1126_6746" x1="4.80333" y1="7.125" x2="21.0152" y2="28.3763" gradientUnits="userSpaceOnUse">
<stop offset="0.259336" stop-color="#FFDB6E"/>
<stop offset="1" stop-color="#FFBC5E"/>
</linearGradient>
<linearGradient id="paint5_linear_1126_6746" x1="6.3546" y1="11.625" x2="8.62337" y2="15.1557" gradientUnits="userSpaceOnUse">
<stop offset="0.259336" stop-color="#FFDB6E"/>
<stop offset="1" stop-color="#FFBC5E"/>
</linearGradient>
<linearGradient id="paint6_linear_1126_6746" x1="6.795" y1="9.75" x2="9.26446" y2="12.5954" gradientUnits="userSpaceOnUse">
<stop offset="0.259336" stop-color="#FFDB6E"/>
<stop offset="1" stop-color="#FFBC5E"/>
</linearGradient>
<linearGradient id="paint7_linear_1126_6746" x1="11.326" y1="9.75" x2="23.5713" y2="22.4837" gradientUnits="userSpaceOnUse">
<stop offset="0.259336" stop-color="#FFDB6E"/>
<stop offset="1" stop-color="#FFBC5E"/>
</linearGradient>
<linearGradient id="paint8_linear_1126_6746" x1="6.90583" y1="15.875" x2="7.66929" y2="17.7297" gradientUnits="userSpaceOnUse">
<stop offset="0.259336" stop-color="#FFDB6E"/>
<stop offset="1" stop-color="#FFBC5E"/>
</linearGradient>
<linearGradient id="paint9_linear_1126_6746" x1="6.35167" y1="18.125" x2="6.91996" y2="20.1331" gradientUnits="userSpaceOnUse">
<stop offset="0.259336" stop-color="#FFDB6E"/>
<stop offset="1" stop-color="#FFBC5E"/>
</linearGradient>
<linearGradient id="paint10_linear_1126_6746" x1="6.35167" y1="20.375" x2="6.91996" y2="22.3831" gradientUnits="userSpaceOnUse">
<stop offset="0.259336" stop-color="#FFDB6E"/>
<stop offset="1" stop-color="#FFBC5E"/>
</linearGradient>
<linearGradient id="paint11_linear_1126_6746" x1="7.75125" y1="10.25" x2="8.83571" y2="11.3278" gradientUnits="userSpaceOnUse">
<stop offset="0.259336" stop-color="#FFDB6E"/>
<stop offset="1" stop-color="#FFBC5E"/>
</linearGradient>
<linearGradient id="paint12_linear_1126_6746" x1="7.62625" y1="12.625" x2="8.71071" y2="13.7028" gradientUnits="userSpaceOnUse">
<stop offset="0.259336" stop-color="#FFDB6E"/>
<stop offset="1" stop-color="#FFBC5E"/>
</linearGradient>
<clipPath id="clip0_1126_6746">
<rect width="30" height="30" fill="white"/>
</clipPath>
</defs>
</svg>
